<?xml version="1.0" encoding="utf-8"?>
<!-- Generator: Adobe Illustrator 15.0.2, SVG Export Plug-In . SVG Version: 6.00 Build 0)  -->
<!DOCTYPE svg PUBLIC "-//W3C//DTD SVG 1.1//EN" "http://www.w3.org/Graphics/SVG/1.1/DTD/svg11.dtd">
<svg version="1.1" id="Layer_1" xmlns="http://www.w3.org/2000/svg" xmlns:xlink="http://www.w3.org/1999/xlink" x="0px" y="0px"
	 width="128px" height="128px" viewBox="0 0 128 128" enable-background="new 0 0 128 128" xml:space="preserve">
<path id="Facebook_3_" fill="#FFFFFF" d="M45.896,42.411c0,0.432,0,2.359,0,2.359h-1.729v2.887h1.729v8.574h3.556v-8.574h2.384
	c0,0,0.223-1.385,0.331-2.898c-0.312,0-2.701,0-2.701,0s0-1.678,0-1.973s0.388-0.691,0.771-0.691c0.383,0,1.188,0,1.936,0
	c0-0.393,0-1.75,0-3.004c-0.997,0-2.131,0-2.631,0C45.81,39.091,45.896,41.977,45.896,42.411z"/>
<path id="Dribbble_3_" fill="#FFFFFF" d="M48.586,8.266c-4.366,0-7.903,3.537-7.903,7.9c0,4.363,3.537,7.898,7.903,7.898
	c4.363,0,7.898-3.536,7.9-7.898C56.484,11.804,52.949,8.267,48.586,8.266z M53.427,12.364c0.771,0.978,1.253,2.19,1.313,3.514
	c-0.893-0.19-1.734-0.282-2.521-0.282l0,0h-0.003c-0.634,0-1.228,0.058-1.786,0.157c-0.136-0.333-0.273-0.653-0.412-0.96
	C51.262,14.245,52.459,13.468,53.427,12.364z M48.586,10.004c1.455,0,2.788,0.508,3.844,1.354c-0.808,0.967-1.875,1.668-3.025,2.163
	c-0.811-1.565-1.595-2.685-2.129-3.369C47.698,10.057,48.136,10.004,48.586,10.004z M45.863,10.645
	c0.427,0.506,1.283,1.617,2.198,3.353c-1.859,0.554-3.734,0.684-4.868,0.684c-0.031,0-0.064,0-0.098-0.001h-0.002
	c-0.189,0-0.354-0.002-0.49-0.006C43.047,12.905,44.259,11.438,45.863,10.645z M42.419,16.166c0-0.029,0.003-0.059,0.004-0.088
	c0.177,0.006,0.401,0.011,0.673,0.011h0.002c1.238-0.008,3.404-0.111,5.598-0.803c0.119,0.261,0.238,0.533,0.354,0.816
	c-1.464,0.489-2.617,1.269-3.472,2.046c-0.819,0.747-1.375,1.488-1.699,1.982C42.972,19.058,42.421,17.679,42.419,16.166z
	 M48.586,22.329c-1.373,0-2.636-0.454-3.664-1.214c0.221-0.359,0.688-1.048,1.432-1.76c0.768-0.734,1.822-1.489,3.203-1.938
	c0.471,1.314,0.896,2.818,1.217,4.51C50.093,22.185,49.357,22.329,48.586,22.329z M52.074,21.237
	c-0.312-1.53-0.706-2.91-1.137-4.142c0.399-0.058,0.818-0.09,1.264-0.09h0.016h0.001h0.001c0.735,0,1.543,0.092,2.418,0.291
	C54.335,18.925,53.39,20.328,52.074,21.237z"/>
<polygon id="Forrst_3_" fill="#FFFFFF" points="9.282,55.552 15.08,55.552 15.08,55.007 15.08,51.893 13.338,50.605 13.764,49.927 
	15.08,50.893 15.08,48.059 16.881,48.059 16.881,49.862 18.182,49.122 18.557,49.864 16.881,50.819 16.881,51.841 19.404,50.479 
	19.739,51.212 16.881,52.755 16.881,55.552 20.469,55.552 20.469,55.583 23.04,55.583 16.155,37.808 "/>
<path id="LinkedIn_3_" fill="#FFFFFF" d="M55.712,81.731v5.609H52.46v-5.234c0-1.313-0.472-2.211-1.647-2.211
	c-0.899,0-1.435,0.604-1.67,1.188c-0.086,0.209-0.107,0.5-0.107,0.793v5.464H45.78c0,0,0.045-8.865,0-9.783h3.256v1.388
	c-0.008,0.012-0.016,0.021-0.021,0.03h0.021v-0.03c0.432-0.666,1.203-1.617,2.931-1.617C54.107,77.326,55.712,78.726,55.712,81.731z
	 M42.375,72.841c-1.113,0-1.843,0.729-1.843,1.688c0,0.941,0.708,1.693,1.799,1.693h0.022c1.135,0,1.841-0.752,1.841-1.693
	C44.173,73.572,43.488,72.841,42.375,72.841z M40.725,87.341h3.254v-9.783h-3.254V87.341z"/>
<path id="Github_3_" fill="#FFFFFF" d="M20.092,103.243c-1.649,1.029-3.349,0.16-4.574,0c-5.41-0.713-7.13,5.599-3.188,8.129
	c-1.015,0.525-0.948,3.201,0.139,3.582c-2.562,0.293-3.036,3.902-1.663,5.375c1.67,1.789,6.809,1.672,8.316,0
	c1.052-1.168,1.198-3.573,0.276-4.686c-0.84-1.014-5.055-1.166-4.989-2.756c0.045-1.109,1.569-0.936,2.495-1.377
	c1.741-0.832,2.762-3.322,2.079-5.236c0.389-0.072,0.721-0.203,1.109-0.275V103.243z M13.44,109.03
	c-2.029-4.418,4.663-4.102,2.633,0C15.407,109.524,14.097,109.573,13.44,109.03z M17.182,117.71c0.18,1.981-3.833,2.07-4.297,0.691
	c-0.39-1.164,0.096-1.494,1.247-1.794C15.438,116.269,17.061,116.386,17.182,117.71z"/>
<path id="Github__x28_alt_x29__3_" fill="#FFFFFF" d="M53.612,103.466c0.311,0.703,0.512,1.873,0.212,2.729
	c1.225,1.047,1.646,3.592,1.055,5.67c1.747,0.133,3.827-0.063,5.171,0.471c-1.256-0.159-2.971-0.477-4.59-0.366
	c-0.308,0.021-0.762-0.011-0.739,0.42c1.874,0.146,3.737,0.31,5.276,0.789c-1.526-0.25-3.379-0.629-5.276-0.685
	c-0.784,1.547-2.361,2.308-4.537,2.468c0.233,0.51,0.682,0.702,0.792,1.521c0.162,1.225-0.256,3.016,0.156,3.832
	c0.199,0.391,0.522,0.4,0.74,0.736c-0.534,0.631-1.855-0.072-2.007-0.736c-0.257-1.139,0.393-2.902-0.315-3.674
	c0.05,1.242-0.293,2.984,0.053,4.094c0.137,0.437,0.53,0.605,0.423,0.998c-2.479,0.252-1.443-3.207-1.85-5.25
	c-0.373,0.027-0.21,0.561-0.211,0.789c-0.01,1.994,0.408,4.729-1.741,4.461c-0.063-0.418,0.288-0.562,0.421-0.943
	c0.395-1.123-0.072-2.795,0.107-4.147c-0.82,0.619,0.086,2.776-0.422,3.886c-0.293,0.637-1.238,0.913-1.954,0.629
	c0.093-0.476,0.585-0.396,0.792-0.841c0.291-0.614,0.002-1.504,0.105-2.413c-1.519,0.303-2.697-0.044-3.273-0.998
	c-0.258-0.429-0.322-0.933-0.633-1.312c-0.311-0.381-0.807-0.433-0.95-0.945c1.88-0.452,1.953,1.937,3.643,1.994
	c0.518,0.021,0.786-0.147,1.267-0.262c0.135-0.604,0.422-1.052,0.844-1.365c-2.102-0.287-3.838-0.94-4.645-2.521
	c-1.912,0.095-3.66,0.351-5.279,0.736c1.469-0.535,3.283-0.727,5.227-0.789c-0.115-0.688-1.119-0.498-1.742-0.473
	c-1.158,0.051-2.617,0.195-3.537,0.367c1.336-0.475,3.207-0.416,5.016-0.418c-0.554-1.734-0.361-4.486,0.845-5.512
	c-0.343-0.861-0.235-2.271,0.211-2.939c1.347,0.061,2.163,0.646,3.009,1.207c1.049-0.299,2.152-0.447,3.59-0.367
	c0.605,0.033,1.233,0.305,1.688,0.262c0.446-0.043,0.938-0.543,1.372-0.734C52.489,103.583,52.967,103.489,53.612,103.466z"/>
<path fill="#FFFFFF" d="M24.71,10.921c-0.622,0.276-1.291,0.462-1.992,0.546c0.716-0.43,1.266-1.109,1.525-1.92
	c-0.67,0.398-1.413,0.687-2.203,0.842c-0.632-0.674-1.535-1.096-2.532-1.096c-1.916,0-3.469,1.553-3.469,3.469
	c0,0.272,0.031,0.537,0.09,0.791c-2.884-0.145-5.439-1.526-7.151-3.625c-0.299,0.512-0.47,1.108-0.47,1.745
	c0,1.204,0.612,2.265,1.543,2.887c-0.569-0.019-1.104-0.174-1.572-0.434c0,0.014,0,0.029,0,0.043c0,1.681,1.196,3.083,2.783,3.402
	c-0.291,0.08-0.597,0.122-0.914,0.122c-0.224,0-0.441-0.022-0.653-0.062c0.441,1.378,1.723,2.381,3.241,2.409
	c-1.187,0.931-2.683,1.485-4.309,1.485c-0.28,0-0.556-0.016-0.828-0.048c1.535,0.984,3.359,1.558,5.318,1.558
	c6.381,0,9.871-5.286,9.871-9.871c0-0.15-0.003-0.3-0.01-0.448C23.657,12.228,24.244,11.617,24.71,10.921z"/>
<path id="Tumblr_2_" fill="#FFFFFF" d="M81.429,85.212c-0.278-0.164-0.536-0.445-0.638-0.72c-0.104-0.272-0.092-0.828-0.092-1.793
	v-4.264h3.877v-2.967h-3.877v-3.846h-2.383c-0.107,0.855-0.304,1.563-0.589,2.119c-0.284,0.555-0.659,1.029-1.131,1.428
	c-0.469,0.396-1.231,0.701-1.892,0.91v2.354h2.277v5.83c0,0.763,0.08,1.342,0.24,1.742c0.162,0.397,0.449,0.776,0.866,1.135
	c0.415,0.353,0.918,0.627,1.507,0.82c0.589,0.188,1.041,0.284,1.809,0.284c0.676,0,1.303-0.067,1.885-0.198
	c0.58-0.138,1.229-0.373,1.945-0.705V84.72c-0.84,0.547-1.685,0.819-2.533,0.819C82.224,85.541,81.801,85.433,81.429,85.212z"/>
<path id="YouTube_2_" fill="#FFFFFF" d="M85.943,20.155h-1.101l0.006-0.639c0-0.284,0.231-0.516,0.519-0.516h0.07
	c0.284,0,0.52,0.232,0.52,0.516L85.943,20.155z M81.82,18.786c-0.278,0-0.508,0.187-0.508,0.417v3.106
	c0,0.229,0.229,0.416,0.508,0.416c0.279,0,0.508-0.188,0.508-0.416v-3.106C82.326,18.973,82.1,18.786,81.82,18.786z M88.516,17.049
	v5.907c0,1.418-1.229,2.577-2.73,2.577H74.553c-1.503,0-2.73-1.159-2.73-2.577v-5.907c0-1.417,1.229-2.578,2.73-2.578h11.232
	C87.287,14.471,88.516,15.631,88.516,17.049z M75.302,23.598v-6.224l1.394,0.001v-0.922l-3.713-0.005v0.906l1.159,0.003v6.241
	H75.302z M79.477,18.302h-1.16v3.324c0,0.48,0.027,0.721-0.002,0.806c-0.096,0.258-0.52,0.531-0.685,0.028
	c-0.028-0.089-0.004-0.354-0.005-0.812l-0.004-3.346h-1.154l0.003,3.293c0.001,0.505-0.013,0.882,0.004,1.053
	c0.028,0.302,0.019,0.655,0.3,0.855c0.521,0.376,1.522-0.057,1.772-0.594l-0.001,0.687l0.932,0.001V18.302z M83.191,22.106
	l-0.004-2.766c-0.001-1.055-0.789-1.686-1.861-0.833l0.006-2.057l-1.159,0.001l-0.007,7.1l0.951-0.015l0.088-0.441
	C82.425,24.214,83.193,23.448,83.191,22.106z M86.822,21.74l-0.869,0.004c-0.002,0.035-0.002,0.075-0.004,0.119v0.485
	c0,0.259-0.215,0.471-0.475,0.471h-0.171c-0.262,0-0.476-0.212-0.476-0.471v-0.054v-0.535v-0.688h1.992V20.32
	c0-0.548-0.015-1.096-0.06-1.41c-0.142-0.991-1.534-1.149-2.237-0.641c-0.221,0.158-0.389,0.37-0.486,0.656
	c-0.1,0.284-0.147,0.675-0.147,1.169v1.649C83.89,24.487,87.22,24.098,86.822,21.74z M82.357,12.786
	c0.062,0.146,0.153,0.264,0.28,0.352c0.123,0.088,0.283,0.132,0.476,0.132c0.166,0,0.313-0.045,0.443-0.139
	c0.129-0.092,0.237-0.231,0.326-0.416l-0.021,0.455h1.293V7.667h-1.019v4.283c0,0.232-0.192,0.422-0.425,0.422
	c-0.233,0-0.424-0.19-0.424-0.422V7.667h-1.063v3.711c0,0.473,0.009,0.788,0.022,0.948C82.262,12.486,82.298,12.639,82.357,12.786z
	 M78.438,9.678c0-0.528,0.045-0.94,0.131-1.237c0.088-0.297,0.246-0.535,0.477-0.715c0.229-0.18,0.521-0.271,0.877-0.271
	c0.299,0,0.556,0.059,0.771,0.174c0.215,0.116,0.381,0.266,0.496,0.452c0.116,0.186,0.196,0.377,0.238,0.573
	c0.044,0.198,0.064,0.497,0.064,0.901v1.392c0,0.51-0.021,0.886-0.06,1.124c-0.04,0.239-0.125,0.46-0.256,0.669
	c-0.129,0.206-0.296,0.359-0.498,0.457c-0.204,0.1-0.438,0.148-0.702,0.148c-0.294,0-0.543-0.041-0.747-0.126
	c-0.206-0.084-0.364-0.212-0.478-0.381c-0.114-0.169-0.194-0.376-0.243-0.617s-0.071-0.603-0.071-1.085V9.678L78.438,9.678z
	 M79.449,11.864c0,0.312,0.232,0.566,0.515,0.566s0.514-0.254,0.514-0.566V8.935c0-0.312-0.229-0.565-0.514-0.565
	c-0.281,0-0.515,0.254-0.515,0.565V11.864z M75.869,13.344h1.221l0.001-4.221l1.442-3.615h-1.336l-0.767,2.686l-0.778-2.692h-1.32
	l1.535,3.624L75.869,13.344z"/>
<g>
	<path fill="#FFFFFF" d="M80.17,104.688c-4.469,0-8.094,3.624-8.094,8.093c0,3.313,1.994,6.162,4.845,7.414
		c-0.022-0.564-0.005-1.244,0.141-1.859c0.156-0.656,1.041-4.408,1.041-4.408s-0.258-0.518-0.258-1.281
		c0-1.199,0.694-2.096,1.562-2.096c0.736,0,1.092,0.553,1.092,1.215c0,0.741-0.473,1.848-0.715,2.873
		c-0.203,0.857,0.431,1.559,1.277,1.559c1.533,0,2.566-1.97,2.566-4.303c0-1.773-1.195-3.102-3.368-3.102
		c-2.456,0-3.983,1.83-3.983,3.875c0,0.705,0.207,1.203,0.532,1.587c0.149,0.178,0.171,0.249,0.116,0.452
		c-0.039,0.148-0.128,0.508-0.165,0.649c-0.054,0.204-0.22,0.277-0.403,0.202c-1.132-0.461-1.658-1.7-1.658-3.093
		c0-2.3,1.939-5.056,5.785-5.056c3.088,0,5.123,2.235,5.123,4.637c0,3.175-1.766,5.547-4.367,5.547c-0.873,0-1.695-0.473-1.979-1.01
		c0,0-0.471,1.863-0.568,2.226c-0.172,0.623-0.508,1.248-0.814,1.733c0.729,0.215,1.496,0.332,2.294,0.332
		c4.47,0,8.093-3.625,8.093-8.094C88.263,108.312,84.64,104.688,80.17,104.688z"/>
</g>
<path fill="#FFFFFF" d="M88.164,44.958c-0.074,1.656-1.231,3.923-3.469,6.801c-2.312,3.006-4.267,4.509-5.867,4.509
	c-0.989,0-1.83-0.915-2.516-2.746c-0.457-1.678-0.914-3.356-1.371-5.035c-0.51-1.83-1.056-2.746-1.639-2.746
	c-0.128,0-0.573,0.268-1.335,0.801l-0.801-1.031c0.84-0.738,1.668-1.475,2.481-2.214c1.12-0.967,1.961-1.476,2.521-1.528
	c1.323-0.127,2.138,0.778,2.442,2.715c0.332,2.09,0.561,3.39,0.688,3.899c0.382,1.734,0.801,2.6,1.26,2.6
	c0.356,0,0.892-0.562,1.604-1.687c0.712-1.125,1.095-1.981,1.145-2.569c0.104-0.971-0.279-1.457-1.145-1.457
	c-0.407,0-0.827,0.093-1.26,0.279c0.836-2.738,2.435-4.069,4.791-3.992C87.441,41.607,88.266,42.742,88.164,44.958z"/>
<circle fill="#1C6CD6" cx="107.134" cy="16.166" r="3.854"/>
<circle fill="#F82386" cx="116.421" cy="16.166" r="3.854"/>
<g>
	<g>
		<polygon fill="#FFFFFF" points="25.351,79.142 22.89,79.142 22.89,76.68 21.658,76.68 21.658,79.142 19.197,79.142 19.197,80.371 
			21.658,80.371 21.658,82.832 22.89,82.832 22.89,80.371 25.351,80.371 		"/>
	</g>
	<g>
		<g>
			<path fill="#FFFFFF" d="M16.661,82.029c-0.495-0.371-1.571-1.132-1.571-1.644c0-0.599,0.172-0.894,1.072-1.597
				c0.923-0.723,1.576-1.672,1.576-2.853c0-1.286-0.525-2.45-1.515-3.019h1.401l1.192-1.25c0,0-3.94,0-5.336,0
				c-2.709,0-4.964,1.996-4.964,4.193c0,2.243,1.482,4.031,4.028,4.031c0.178,0,0.349-0.009,0.518-0.021
				c-0.165,0.316-0.283,0.67-0.283,1.039c0,0.625,0.344,0.979,0.768,1.394c-0.321,0-0.631,0.008-0.967,0.008
				c-3.102,0-5.271,2.134-5.271,4.183c0,2.016,2.616,3.276,5.716,3.276c3.535,0,5.708-2.006,5.708-4.021
				C18.734,84.134,18.384,83.32,16.661,82.029z M13.578,79.078c-1.438-0.043-2.806-1.362-3.055-3.25
				c-0.247-1.89,0.717-3.334,2.154-3.293c1.438,0.045,2.669,1.595,2.917,3.481C15.843,77.906,15.015,79.121,13.578,79.078z
				 M13.015,88.881c-2.144,0-3.69-1.356-3.69-2.985c0-1.597,1.815-2.975,3.958-2.95c0.5,0.004,0.966,0.086,1.389,0.223
				c1.164,0.809,2.102,1.313,2.338,2.236c0.044,0.186,0.067,0.379,0.067,0.574C17.076,87.609,16.027,88.881,13.015,88.881z"/>
		</g>
	</g>
</g>
<path id="RSS_2_" fill="#FFFFFF" d="M108.462,52.055c0.359,0.36,0.58,0.849,0.581,1.393c-0.001,0.543-0.222,1.031-0.58,1.391
	l-0.001,0.001c-0.36,0.358-0.852,0.578-1.398,0.578c-0.546,0-1.035-0.22-1.396-0.579c-0.359-0.359-0.58-0.847-0.58-1.391
	s0.221-1.034,0.58-1.394l0,0c0.36-0.359,0.85-0.58,1.396-0.58C107.61,51.474,108.102,51.697,108.462,52.055z M108.462,52.055
	L108.462,52.055L108.462,52.055L108.462,52.055z M105.667,54.84L105.667,54.84C105.665,54.839,105.665,54.839,105.667,54.84
	L105.667,54.84z M105.088,45.607v2.843c1.856,0.001,3.612,0.73,4.926,2.047c1.313,1.312,2.04,3.069,2.042,4.932h0.003v0.005h2.854
	c-0.002-2.708-1.104-5.162-2.883-6.943C110.249,46.712,107.797,45.61,105.088,45.607z M105.093,40.545v2.841
	c6.636,0.005,12.029,5.408,12.034,12.049h2.851c-0.003-4.104-1.671-7.824-4.367-10.522
	C112.913,42.217,109.196,40.547,105.093,40.545z"/>
<path id="Skype_2_" fill="#FFFFFF" d="M119.948,81.547c0.065-0.422,0.102-0.852,0.102-1.29c0-4.565-3.7-8.267-8.266-8.267
	c-0.438,0-0.869,0.035-1.291,0.103c-0.762-0.472-1.659-0.744-2.621-0.744c-2.76,0-4.995,2.235-4.995,4.996
	c0,0.961,0.272,1.858,0.743,2.622c-0.064,0.422-0.102,0.852-0.102,1.29c0,4.563,3.701,8.264,8.266,8.264
	c0.438,0,0.869-0.032,1.289-0.1c0.764,0.471,1.66,0.743,2.623,0.743c2.76,0,4.996-2.236,4.996-4.996
	C120.692,83.205,120.419,82.309,119.948,81.547z M115.708,84.016c-0.35,0.504-0.864,0.896-1.535,1.18
	c-0.672,0.283-1.467,0.424-2.385,0.424c-1.102,0-2.012-0.19-2.73-0.58c-0.51-0.278-0.924-0.651-1.242-1.117
	c-0.32-0.467-0.481-0.924-0.481-1.367c0-0.264,0.101-0.491,0.296-0.678c0.195-0.188,0.449-0.28,0.75-0.28
	c0.244,0,0.456,0.073,0.627,0.22c0.171,0.147,0.312,0.359,0.43,0.641c0.141,0.324,0.292,0.597,0.454,0.812
	c0.161,0.215,0.388,0.395,0.681,0.533c0.289,0.141,0.676,0.211,1.157,0.211c0.66,0,1.193-0.145,1.603-0.425
	c0.41-0.284,0.609-0.63,0.609-1.05c0-0.332-0.107-0.598-0.326-0.805c-0.22-0.209-0.504-0.367-0.855-0.479
	c-0.354-0.112-0.829-0.23-1.426-0.357c-0.799-0.174-1.469-0.377-2.01-0.609c-0.541-0.234-0.975-0.555-1.295-0.959
	c-0.32-0.408-0.48-0.916-0.48-1.518c0-0.572,0.17-1.086,0.508-1.531c0.338-0.447,0.827-0.791,1.464-1.029
	c0.636-0.237,1.384-0.356,2.24-0.356c0.685,0,1.276,0.079,1.778,0.236c0.5,0.159,0.918,0.368,1.25,0.633
	c0.332,0.263,0.576,0.539,0.73,0.829c0.153,0.292,0.23,0.576,0.23,0.854c0,0.26-0.1,0.493-0.295,0.698
	c-0.194,0.205-0.443,0.312-0.734,0.31c-0.264,0-0.469-0.061-0.611-0.188c-0.14-0.125-0.285-0.322-0.443-0.598
	c-0.199-0.385-0.439-0.684-0.719-0.897c-0.271-0.21-0.717-0.319-1.34-0.317c-0.574,0-1.035,0.117-1.384,0.348
	c-0.351,0.232-0.519,0.505-0.519,0.822c0,0.199,0.059,0.367,0.174,0.511c0.117,0.146,0.279,0.271,0.488,0.377s0.422,0.19,0.637,0.25
	c0.217,0.062,0.574,0.149,1.074,0.269c0.625,0.135,1.193,0.284,1.703,0.449s0.943,0.364,1.303,0.602
	c0.363,0.236,0.646,0.537,0.848,0.902c0.203,0.364,0.305,0.811,0.305,1.334C116.235,82.945,116.059,83.513,115.708,84.016z"/>
<path id="Feedburner_3_" fill="#FFFFFF" d="M117.757,114.825c0.048-0.259,0.082-0.52,0.084-0.779
	c0.013-3.266-1.762-4.537-3.643-5.625c0.545,2.857-1.215,4.624-3.401,4.006c3.196-5.229-1.455-5.24-0.034-9.018
	c-2.186,1.555-4.378,5.898-4.371,9.071c0.002,0.837,0.085,1.615,0.242,2.329c-1.574,0.63-2.562,1.523-2.562,2.514
	c0,1.903,3.643,3.457,8.106,3.457c4.466,0,8.104-1.554,8.104-3.457C120.284,116.341,119.31,115.454,117.757,114.825z
	 M109.075,110.675c-0.604,2.727,1.017,4.757,2.578,4.775c1.762,0.015,2.805-1.631,3.301-3.787c0.938,0.713,1.42,1.709,1.481,2.725
	c-0.003-0.001-0.005-0.001-0.007-0.001c0.07,1.149-0.398,2.323-1.375,3.146c-0.005,0.004-0.011,0.008-0.016,0.014
	c-0.211,0.175-0.443,0.333-0.699,0.472c-0.023,0.013-0.047,0.022-0.069,0.036c-0.104,0.053-0.209,0.104-0.317,0.148
	c-0.032,0.015-0.063,0.027-0.096,0.041c-0.27,0.107-0.558,0.194-0.865,0.261c-0.045,0.008-0.088,0.016-0.133,0.024
	c-0.115,0.021-0.234,0.039-0.356,0.053c-0.048,0.007-0.097,0.014-0.146,0.018c-0.164,0.018-0.334,0.029-0.511,0.032
	c-0.122,0.003-0.243-0.002-0.362-0.011c-0.033-0.002-0.063-0.006-0.096-0.008c-0.104-0.01-0.203-0.021-0.303-0.039
	c-0.02-0.002-0.038-0.004-0.059-0.008c-0.119-0.021-0.238-0.049-0.354-0.082c-0.015-0.003-0.029-0.008-0.043-0.013
	c-0.109-0.031-0.218-0.065-0.323-0.106c-0.011-0.004-0.021-0.008-0.031-0.013c-1.449-0.569-2.502-1.979-2.445-3.938
	c-0.004,0-0.006,0-0.008,0.002C107.854,113.323,108.229,112.06,109.075,110.675z"/>
</svg>
